<svg width="1023" height="1023" viewBox="-1 -1 31 31" xmlns="http://www.w3.org/2000/svg" shape-rendering="crispEdges"><path fill="#FFF" d="M-1-1h31v31H-1z"/><path fill-rule="evenodd" d="M11 0h2v1h-2zm3 0h1v2h-1zm4 0h1v1h-1zM9 1h2v1H9zm7 0h2v1h-2zm4 0h1v1h-1zm-8 1h1v1h1v2h-1V4h-1zm3 0h1v1h-1zm4 0h1v1h-1zM8 3h1v1h1v1H8zm8 0h2v1h2V3h1v2h-4v3h-1v3h1v3h1v1h-1v1h-1v-1h-4v2h-2v-1h1v-2h3v-2h1v1h1v-1h-1v-1h-2v-1h-1V9h1V8h1v1h1V8h-1V6h1v1h1zm-5 2h2v2h-1V6h-1zM8 6h1v1H8zm2 0h1v1h1v2h-1V8h-1zm8 0h1v1h-1zm2 0h1v2h-1v1h1v2h-1v-1h-2v1h-1V8h2V7h1zM0 8h2v1H1v1H0zm5 0h3v1h1V8h1v2H8v1H6v-1h1V9H6v1H5zm19 0h2v1h-1v1h-2V9h1zM2 9h1v1H2zm24 0h2v1h-2zM3 10h2v1H3zm7 0h1v1h-1zM0 11h3v1H2v1h1v1h1v3h1v1h2v1H4v-1H3v-1H2v-2H1v1H0v-3h1v-1H0zm8 0h2v2H8zm4 0h1v2h-2v-1h1zm7 0h1v1h-1zm3 0h2v2h-1v1h-1zm3 0h1v1h-1zM3 12h1v1H3zm3 0h1v1H6zm14 0h1v2h1v1h1v-1h1v1h1v1h-1v1h1v1h-2v1h2v1h-5v1h-1v-2h-2v-1h-1v1h-1v-3h1v1h1v-1h1v1h1v-1h-1v-1h2v2h1v1h-1v1h1v-1h1v-1h1v-1h-2v-1h-1v-1h-1v-1h1zm8 0h1v2h-2v-1h1zm-4 1h1v1h-1zM6 14h1v1H6zm3 0h1v1H9zm16 0h2v3h2v2h-1v-1h-2v-1h-1v-1h1v-1h-1zm3 1h1v1h-1zM6 16h1v1H6zm2 0h1v1H8zm-8 1h1v1h1v1H1v2H0zm7 0h1v1H7zm5 0h2v1h-2zm-4 1h1v2H8zm2 0h2v1h-2zm15 0h1v1h-1zM2 19h2v2H2zm10 0h2v1h-1v1h-1zm4 0h1v1h-1zM6 20h1v1H6zm8 0h1v1h1v2h1v2h-1v-1h-1v1h1v1h1v2h1v1h-2v-2h-1v2h-1v-1h-1v1h-1v-2h1v-1h-1v-1h1v-1h1v-1h1v-1h-1zm3 0h1v1h1v1h-1v1h-1zm9 0h3v1h-3zM8 21h2v1H9v1h1v-1h3v1h-1v1h-2v1H9v-1H8zm17 0h1v1h1v1h-2zm-6 1h1v3h-1v-1h-1v-1h1zm6 2h1v1h1v1h1v1h-1v2h-4v-1h-2v-2h-1v-1h2v1h1v-1h1v1h1zm-1 3h1v1h-1zm3-3h1v1h-1zm-17 1h1v1h-1zm8 0h1v2h-1zm10 0h1v1h-1zM9 26h1v2H9v1H8v-2h1zm19 1h1v1h-1zm-9 1h1v1h-1z"/><path d="M0 0h7v7H0V0zm1 1h5v5H1V1zm1 1h3v3H2V2zm20-2h7v7h-7V0zm1 1h5v5h-5V1zm1 1h3v3h-3V2zM0 22h7v7H0v-7zm1 1h5v5H1v-5zm1 1h3v3H2v-3zm18-4h5v5h-5v-5zm1 1h3v3h-3v-3zm1 1h1v1h-1v-1z" fill-rule="evenodd"/></svg>