<svg width="1026" height="1026" viewBox="-1 -1 27 27" xmlns="http://www.w3.org/2000/svg" shape-rendering="crispEdges"><path fill="#FFF" d="M-1-1h27v27H-1z"/><path fill-rule="evenodd" d="M8 0h2v1h1v1h-1v1H9V1H8zm4 0h1v1h1v1h1v1h2v2h-1V4h-1v3h-1V6h-1V5h-1V4h1V3h-2V2h1zm2 0h1v1h-1zm2 1h1v1h-1zm-6 2h1v1h-1zM9 5h1v1H9zm2 0h1v1h-1zM8 6h1v1h1v2H9V8H8zm2 0h1v1h-1zm2 0h1v1h-1zm4 0h1v1h-1zm-3 1h1v1h-1zm2 0h1v1h1v1h-1v3h-1V9h-1V8h1zM0 8h2v1H1v3H0zm3 0h2v2H3zm3 0h1v1H6zm12 0h1v1h-1zm6 0h1v1h-1zM10 9h2v1h2v1h-3v-1h-1zm9 0h5v1h-2v1h2v-1h1v3h-1v-1h-3v-2h-1v3h-2v-2h1zM6 10h1v1H6zm3 0h1v1H9zm8 0h1v1h-1zM2 11h1v1H2zm2 1h7v1h1v1h-1v2h-1v1h1v1h2v1h-1v1h-1v1h1v2h1v1h-2v1h-1v-2h1v-1h-1v-2H9v-2H8v-1h1v-1H8v-2h1v1h1v-2H6v1H5v1H4v1H3v1H2v-2H1v2H0v-4h1v1h3zm8 0h1v1h-1zm4 0h1v1h-1zm-2 1h2v1h1v-1h1v1h1v1h1v1h-2v-1h-1v1h-1v1h-1v-3h-1zm6 0h1v1h2v-1h1v1h1v2h-1v-1h-1v1h1v2h-2v-2h-1v-1h-1zM6 14h1v1H6zm7 0h1v1h-1zm-1 1h1v1h1v2h-1v-1h-1zm-7 1h2v1H5zm19 2h1v1h-1zm-11 1h3v2h3v1h-1v2h1v1h-3v-1h1v-2h-2v1h1v1h-2v-4h-1zm-5 1h1v2H8zm15 0h1v1h1v4h-1v-1h-2v-1h-1v1h-2v-1h1v-1h3zM9 22h1v1H9zm-1 1h1v2H8zm13 1h1v1h-1z"/><path d="M0 0h7v7H0V0zm1 1h5v5H1V1zm1 1h3v3H2V2zm16-2h7v7h-7V0zm1 1h5v5h-5V1zm1 1h3v3h-3V2zM0 18h7v7H0v-7zm1 1h5v5H1v-5zm1 1h3v3H2v-3zm14-4h5v5h-5v-5zm1 1h3v3h-3v-3zm1 1h1v1h-1v-1z" fill-rule="evenodd"/></svg>