<svg xmlns="http://www.w3.org/2000/svg" width="512" height="512"><path style="fill:#f5f6f7;stroke:none" d="M0 0v102h1c4.906-23.456 25.846-38 49-38 5.158 0 11.354-.963 16 1.703 17.432 10.003 33.278 25.968 49 38.496 28.883 23.014 58.117 45.588 87 68.602 12.288 9.791 24.689 19.44 37 29.202 4.349 3.449 10.443 10.623 16 11.755 4.758.97 10.641-5.871 14-8.558 11.602-9.281 23.397-18.321 35-27.6 31.51-25.196 63.491-49.803 95-75 14.75-11.794 30.953-29.33 48-37.436C451.383 63.081 457.276 64 462 64c23.154 0 44.094 14.544 49 38h1V0H0z"/><path style="fill:#f54337;stroke:none" d="M64 448V149l141 108.13 37 28.496 14 9.246 14-9.246 37-28.496L448 149v299c22.721 0 44.84-.634 57.663-23 12.04-21.002 6.337-52.547 6.337-76V178c0-31.644 10.452-82.362-18-104.32-10.887-8.402-33.73-14.863-47-8.377-17.751 8.676-34.56 26.546-50 38.897-31.838 25.469-64.163 50.33-96 75.8-10.62 8.496-21.245 17.025-32 25.35-3.255 2.519-8.65 8.673-13 8.673-4.577 0-10.567-6.768-14-9.447-12.076-9.424-23.997-19.055-36-28.573-33.923-26.899-67.869-53.793-102-80.427-12.026-9.385-25.778-25.133-40-30.722-5.892-2.315-14.742-1.003-21-.84-5.538.145-11.026 1.86-16 4.248C-7.309 84.731 0 124.58 0 156v231c0 10.861-1.042 21.776 3.337 32C14.803 445.771 38.573 448 64 448z"/><path style="fill:#f08882;stroke:none" d="m64 64 1 1-1-1m383 0 1 1-1-1M65 65l1 1-1-1z"/><path style="fill:#cfd9dd;stroke:none" d="m66 65 1 1-1-1m379 0 1 1-1-1z"/><path style="fill:#f08882;stroke:none" d="m446 65 1 1-1-1z"/><path style="fill:#eab8b6;stroke:none" d="m67 66 1 1-1-1m377 0 1 1-1-1M68 67l1 1-1-1m375 0 1 1-1-1z"/><path style="fill:#f08882;stroke:none" d="m69 68 1 1-1-1m373 0 1 1-1-1z"/><path style="fill:#cfd9dd;stroke:none" d="m71 69 1 1-1-1m369 0 1 1-1-1z"/><path style="fill:#eab8b6;stroke:none" d="m72 70 1 1-1-1m367 0 1 1-1-1z"/><path style="fill:#f08882;stroke:none" d="m73 71 1 1-1-1m365 0 1 1-1-1M74 72l1 1-1-1m363 0 1 1-1-1z"/><path style="fill:#cfd9dd;stroke:none" d="m76 73 1 1-1-1m359 0 1 1-1-1z"/><path style="fill:#eab8b6;stroke:none" d="m77 74 1 1-1-1m357 0 1 1-1-1z"/><path style="fill:#f08882;stroke:none" d="m78 75 1 1-1-1m355 0 1 1-1-1M79 76l1 1-1-1z"/><path style="fill:#cfd9dd;stroke:none" d="m80 76 1 1-1-1m351 0 1 1-1-1z"/><path style="fill:#f08882;stroke:none" d="m432 76 1 1-1-1z"/><path style="fill:#eab8b6;stroke:none" d="m81 77 1 1-1-1m349 0 1 1-1-1M82 78l1 1-1-1m347 0 1 1-1-1z"/><path style="fill:#f08882;stroke:none" d="m83 79 1 1-1-1m345 0 1 1-1-1M84 80l1 1-1-1z"/><path style="fill:#cfd9dd;stroke:none" d="m85 80 1 1-1-1m341 0 1 1-1-1z"/><path style="fill:#f08882;stroke:none" d="m427 80 1 1-1-1z"/><path style="fill:#eab8b6;stroke:none" d="m86 81 1 1-1-1m339 0 1 1-1-1M87 82l1 1-1-1m337 0 1 1-1-1z"/><path style="fill:#f08882;stroke:none" d="m88 83 1 1-1-1m335 0 1 1-1-1z"/><path style="fill:#cfd9dd;stroke:none" d="m90 84 1 1-1-1m331 0 1 1-1-1z"/><path style="fill:#eab8b6;stroke:none" d="m91 85 1 1-1-1m329 0 1 1-1-1z"/><path style="fill:#f08882;stroke:none" d="m92 86 1 1-1-1m327 0 1 1-1-1M93 87l1 1-1-1m325 0 1 1-1-1z"/><path style="fill:#cfd9dd;stroke:none" d="m95 88 1 1-1-1m321 0 1 1-1-1z"/><path style="fill:#eab8b6;stroke:none" d="m96 89 1 1-1-1m319 0 1 1-1-1z"/><path style="fill:#f08882;stroke:none" d="m97 90 1 1-1-1m317 0 1 1-1-1M98 91l1 1-1-1z"/><path style="fill:#cfd9dd;stroke:none" d="m99 91 1 1-1-1m313 0 1 1-1-1z"/><path style="fill:#f08882;stroke:none" d="m413 91 1 1-1-1z"/><path style="fill:#eab8b6;stroke:none" d="m100 92 1 1-1-1m311 0 1 1-1-1m-310 1 1 1-1-1m309 0 1 1-1-1z"/><path style="fill:#f08882;stroke:none" d="m102 94 1 1-1-1m307 0 1 1-1-1m-306 1 1 1-1-1z"/><path style="fill:#cfd9dd;stroke:none" d="m104 95 1 1-1-1m303 0 1 1-1-1z"/><path style="fill:#f08882;stroke:none" d="m408 95 1 1-1-1z"/><path style="fill:#eab8b6;stroke:none" d="m105 96 1 1-1-1m301 0 1 1-1-1m-300 1 1 1-1-1m299 0 1 1-1-1z"/><path style="fill:#f08882;stroke:none" d="m107 98 1 1-1-1m297 0 1 1-1-1z"/><path style="fill:#cfd9dd;stroke:none" d="m109 99 1 1-1-1m293 0 1 1-1-1z"/><path style="fill:#eab8b6;stroke:none" d="m110 100 1 1-1-1m291 0 1 1-1-1z"/><path style="fill:#f08882;stroke:none" d="m111 101 1 1-1-1m289 0 1 1-1-1m-288 1 1 1-1-1m287 0 1 1-1-1z"/><path style="fill:#cfd9dd;stroke:none" d="m114 103 1 1-1-1m283 0 1 1-1-1z"/><path style="fill:#eab8b6;stroke:none" d="m115 104 1 1-1-1m281 0 1 1-1-1z"/><path style="fill:#f08882;stroke:none" d="m116 105 1 1-1-1m279 0 1 1-1-1m-278 1 1 1-1-1m277 0 1 1-1-1z"/><path style="fill:#eab8b6;stroke:none" d="m119 107 1 1-1-1m273 0 1 1-1-1m-272 1 1 1-1-1m271 0 1 1-1-1z"/><path style="fill:#f08882;stroke:none" d="m121 109 1 1-1-1m269 0 1 1-1-1m-268 1 1 1-1-1z"/><path style="fill:#cfd9dd;stroke:none" d="m123 110 1 1-1-1m265 0 1 1-1-1z"/><path style="fill:#f08882;stroke:none" d="m389 110 1 1-1-1z"/><path style="fill:#eab8b6;stroke:none" d="m124 111 1 1-1-1m263 0 1 1-1-1m-262 1 1 1-1-1m261 0 1 1-1-1z"/><path style="fill:#f08882;stroke:none" d="m126 113 1 1-1-1m259 0 1 1-1-1z"/><path style="fill:#cfd9dd;stroke:none" d="m128 114 1 1-1-1m255 0 1 1-1-1z"/><path style="fill:#eab8b6;stroke:none" d="m129 115 1 1-1-1m253 0 1 1-1-1z"/><path style="fill:#f08882;stroke:none" d="m130 116 1 1-1-1m251 0 1 1-1-1m-250 1 1 1-1-1m249 0 1 1-1-1z"/><path style="fill:#cfd9dd;stroke:none" d="m133 118 1 1-1-1m245 0 1 1-1-1z"/><path style="fill:#eab8b6;stroke:none" d="m134 119 1 1-1-1m243 0 1 1-1-1z"/><path style="fill:#f08882;stroke:none" d="m135 120 1 1-1-1m241 0 1 1-1-1m-240 1 1 1-1-1m239 0 1 1-1-1z"/><path style="fill:#eab8b6;stroke:none" d="m138 122 1 1-1-1m235 0 1 1-1-1m-234 1 1 1-1-1m233 0 1 1-1-1z"/><path style="fill:#f08882;stroke:none" d="m140 124 1 1-1-1m231 0 1 1-1-1m-230 1 1 1-1-1z"/><path style="fill:#cfd9dd;stroke:none" d="m142 125 1 1-1-1m227 0 1 1-1-1z"/><path style="fill:#f08882;stroke:none" d="m370 125 1 1-1-1z"/><path style="fill:#eab8b6;stroke:none" d="m143 126 1 1-1-1m225 0 1 1-1-1m-224 1 1 1-1-1m223 0 1 1-1-1z"/><path style="fill:#f08882;stroke:none" d="m145 128 1 1-1-1m221 0 1 1-1-1z"/><path style="fill:#cfd9dd;stroke:none" d="m147 129 1 1-1-1m217 0 1 1-1-1z"/><path style="fill:#eab8b6;stroke:none" d="m148 130 1 1-1-1m215 0 1 1-1-1z"/><path style="fill:#f08882;stroke:none" d="m149 131 1 1-1-1m213 0 1 1-1-1m-212 1 1 1-1-1m211 0 1 1-1-1z"/><path style="fill:#cfd9dd;stroke:none" d="m152 133 1 1-1-1m207 0 1 1-1-1z"/><path style="fill:#eab8b6;stroke:none" d="m153 134 1 1-1-1m205 0 1 1-1-1z"/><path style="fill:#f08882;stroke:none" d="m154 135 1 1-1-1m203 0 1 1-1-1m-202 1 1 1-1-1m201 0 1 1-1-1z"/><path style="fill:#eab8b6;stroke:none" d="m157 137 1 1-1-1m197 0 1 1-1-1m-196 1 1 1-1-1m195 0 1 1-1-1z"/><path style="fill:#f08882;stroke:none" d="m159 139 1 1-1-1m193 0 1 1-1-1m-192 1 1 1-1-1z"/><path style="fill:#cfd9dd;stroke:none" d="m161 140 1 1-1-1m189 0 1 1-1-1z"/><path style="fill:#f08882;stroke:none" d="m351 140 1 1-1-1z"/><path style="fill:#eab8b6;stroke:none" d="m162 141 1 1-1-1m187 0 1 1-1-1m-186 1 1 1-1-1m185 0 1 1-1-1z"/><path style="fill:#f08882;stroke:none" d="m164 143 1 1-1-1m183 0 1 1-1-1z"/><path style="fill:#cfd9dd;stroke:none" d="m166 144 1 1-1-1m179 0 1 1-1-1z"/><path style="fill:#eab8b6;stroke:none" d="m167 145 1 1-1-1m177 0 1 1-1-1z"/><path style="fill:#f08882;stroke:none" d="m168 146 1 1-1-1m175 0 1 1-1-1m-174 1 1 1-1-1m173 0 1 1-1-1z"/><path style="fill:#cfd9dd;stroke:none" d="m171 148 1 1-1-1m169 0 1 1-1-1m-276 1 1 1-1-1z"/><path style="fill:#eab8b6;stroke:none" d="m172 149 1 1-1-1m167 0 1 1-1-1z"/><path style="fill:#f08882;stroke:none" d="m446 149-1 2 1-2z"/><path style="fill:#cfd9dd;stroke:none" d="m447 149-51 39.651-96 73.925L256 297l140 110.424L448 448V176l-1-27z"/><path style="fill:#f5f6f7;stroke:none" d="M64 150v298c-27.876 0-56.263-5.79-63-38H0v102h512V410h-1c-5.167 24.701-37.223 48.143-63 37.062-7.511-3.229-14.622-10.781-21-15.863-12.955-10.323-26.057-20.462-39-30.799-73.331-58.572-147.665-115.775-222-173.051-21.986-16.94-44.093-33.732-66-50.773-11.056-8.601-23.098-21.115-36-26.576z"/><path style="fill:#f08882;stroke:none" d="m66 150 1 1-1-1m107 0 1 1-1-1m165 0 1 1-1-1z"/><path style="fill:#eab8b6;stroke:none" d="m67 151 1 1-1-1z"/><path style="fill:#f08882;stroke:none" d="m174 151 1 1-1-1m163 0 1 1-1-1z"/><path style="fill:#eab8b6;stroke:none" d="m444 151 1 1-1-1z"/><path style="fill:#cfd9dd;stroke:none" d="m68 152 1 1-1-1m108 0 1 1-1-1m159 0 1 1-1-1z"/><path style="fill:#eab8b6;stroke:none" d="m443 152 1 1-1-1z"/><path style="fill:#f08882;stroke:none" d="m70 153 1 1-1-1z"/><path style="fill:#eab8b6;stroke:none" d="m177 153 1 1-1-1m157 0 1 1-1-1z"/><path style="fill:#f08882;stroke:none" d="m441 153 1 1-1-1z"/><path style="fill:#eab8b6;stroke:none" d="m71 154 1 1-1-1z"/><path style="fill:#f08882;stroke:none" d="m178 154 1 1-1-1m155 0 1 1-1-1z"/><path style="fill:#eab8b6;stroke:none" d="m440 154 1 1-1-1m-368 1 1 1-1-1z"/><path style="fill:#f08882;stroke:none" d="m179 155 1 1-1-1z"/><path style="fill:#cfd9dd;stroke:none" d="m180 155 1 1-1-1m151 0 1 1-1-1z"/><path style="fill:#f08882;stroke:none" d="m332 155 1 1-1-1z"/><path style="fill:#eab8b6;stroke:none" d="m439 155 1 1-1-1z"/><path style="fill:#cfd9dd;stroke:none" d="m73 156 1 1-1-1z"/><path style="fill:#f08882;stroke:none" d="m74 156 1 1-1-1z"/><path style="fill:#eab8b6;stroke:none" d="m181 156 1 1-1-1m149 0 1 1-1-1z"/><path style="fill:#f08882;stroke:none" d="m437 156 1 1-1-1m-362 1 1 1-1-1z"/><path style="fill:#eab8b6;stroke:none" d="m182 157 1 1-1-1m147 0 1 1-1-1z"/><path style="fill:#f08882;stroke:none" d="m436 157 1 1-1-1z"/><path style="fill:#eab8b6;stroke:none" d="m76 158 1 1-1-1z"/><path style="fill:#f08882;stroke:none" d="m183 158 1 1-1-1m145 0 1 1-1-1z"/><path style="fill:#eab8b6;stroke:none" d="m435 158 1 1-1-1z"/><path style="fill:#cfd9dd;stroke:none" d="m77 159 1 1-1-1m108 0 1 1-1-1m141 0 1 1-1-1z"/><path style="fill:#f08882;stroke:none" d="m433 159 1 1-1-1m-354 1 1 1-1-1z"/><path style="fill:#eab8b6;stroke:none" d="m186 160 1 1-1-1m139 0 1 1-1-1z"/><path style="fill:#f08882;stroke:none" d="m432 160 1 1-1-1z"/><path style="fill:#eab8b6;stroke:none" d="m80 161 1 1-1-1z"/><path style="fill:#f08882;stroke:none" d="m187 161 1 1-1-1m137 0 1 1-1-1z"/><path style="fill:#eab8b6;stroke:none" d="m431 161 1 1-1-1z"/><path style="fill:#cfd9dd;stroke:none" d="m81 162 1 1-1-1z"/><path style="fill:#f08882;stroke:none" d="m188 162 1 1-1-1m135 0 1 1-1-1z"/><path style="fill:#eab8b6;stroke:none" d="m430 162 1 1-1-1z"/><path style="fill:#f08882;stroke:none" d="m83 163 1 1-1-1z"/><path style="fill:#cfd9dd;stroke:none" d="m190 163 1 1-1-1m131 0 1 1-1-1z"/><path style="fill:#f08882;stroke:none" d="m428 163 1 1-1-1z"/><path style="fill:#eab8b6;stroke:none" d="m84 164 1 1-1-1m107 0 1 1-1-1m129 0 1 1-1-1m107 0 1 1-1-1m-342 1 1 1-1-1z"/><path style="fill:#f08882;stroke:none" d="m192 165 1 1-1-1m127 0 1 1-1-1z"/><path style="fill:#eab8b6;stroke:none" d="m426 165 1 1-1-1z"/><path style="fill:#cfd9dd;stroke:none" d="m86 166 1 1-1-1z"/><path style="fill:#f08882;stroke:none" d="m87 166 1 1-1-1m106 0 1 1-1-1m125 0 1 1-1-1m106 0 1 1-1-1m-336 1 1 1-1-1z"/><path style="fill:#cfd9dd;stroke:none" d="m195 167 1 1-1-1m121 0 1 1-1-1z"/><path style="fill:#f08882;stroke:none" d="m423 167 1 1-1-1z"/><path style="fill:#eab8b6;stroke:none" d="m89 168 1 1-1-1m107 0 1 1-1-1m119 0 1 1-1-1m107 0 1 1-1-1z"/><path style="fill:#cfd9dd;stroke:none" d="m90 169 1 1-1-1z"/><path style="fill:#f08882;stroke:none" d="m197 169 1 1-1-1m117 0 1 1-1-1m106 0 1 1-1-1m-328 1 1 1-1-1m106 0 1 1-1-1z"/><path style="fill:#cfd9dd;stroke:none" d="m199 170 1 1-1-1m113 0 1 1-1-1z"/><path style="fill:#f08882;stroke:none" d="m313 170 1 1-1-1m106 0 1 1-1-1z"/><path style="fill:#eab8b6;stroke:none" d="m93 171 1 1-1-1m107 0 1 1-1-1m111 0 1 1-1-1m107 0 1 1-1-1z"/><path style="fill:#cfd9dd;stroke:none" d="m94 172 1 1-1-1z"/><path style="fill:#eab8b6;stroke:none" d="m201 172 1 1-1-1m109 0 1 1-1-1m107 0 1 1-1-1z"/><path style="fill:#f08882;stroke:none" d="m96 173 1 1-1-1m106 0 1 1-1-1m107 0 1 1-1-1m106 0 1 1-1-1z"/><path style="fill:#eab8b6;stroke:none" d="m97 174 1 1-1-1z"/><path style="fill:#cfd9dd;stroke:none" d="m204 174 1 1-1-1m103 0 1 1-1-1z"/><path style="fill:#eab8b6;stroke:none" d="m414 174 1 1-1-1m-316 1 1 1-1-1m107 0 1 1-1-1m101 0 1 1-1-1m107 0 1 1-1-1z"/><path style="fill:#cfd9dd;stroke:none" d="m99 176 1 1-1-1z"/><path style="fill:#f08882;stroke:none" d="m100 176 1 1-1-1m106 0 1 1-1-1m99 0 1 1-1-1m106 0 1 1-1-1m-310 1 1 1-1-1m106 0 1 1-1-1m97 0 1 1-1-1m106 0 1 1-1-1z"/><path style="fill:#eab8b6;stroke:none" d="m102 178 1 1-1-1z"/><path style="fill:#cfd9dd;stroke:none" d="m209 178 1 1-1-1m93 0 1 1-1-1z"/><path style="fill:#eab8b6;stroke:none" d="m409 178 1 1-1-1z"/><path style="fill:#cfd9dd;stroke:none" d="m103 179 1 1-1-1z"/><path style="fill:#eab8b6;stroke:none" d="m210 179 1 1-1-1m91 0 1 1-1-1z"/><path style="fill:#f08882;stroke:none" d="m407 179 1 1-1-1m-302 1 1 1-1-1m106 0 1 1-1-1m89 0 1 1-1-1m106 0 1 1-1-1z"/><path style="fill:#eab8b6;stroke:none" d="m106 181 1 1-1-1z"/><path style="fill:#f08882;stroke:none" d="m212 181 1 1-1-1m87 0 1 1-1-1z"/><path style="fill:#eab8b6;stroke:none" d="m405 181 1 1-1-1z"/><path style="fill:#cfd9dd;stroke:none" d="m107 182 1 1-1-1m107 0 1 1-1-1m83 0 1 1-1-1z"/><path style="fill:#eab8b6;stroke:none" d="m404 182 1 1-1-1z"/><path style="fill:#f08882;stroke:none" d="m109 183 1 1-1-1z"/><path style="fill:#eab8b6;stroke:none" d="m215 183 1 1-1-1m81 0 1 1-1-1z"/><path style="fill:#f08882;stroke:none" d="m402 183 1 1-1-1z"/><path style="fill:#eab8b6;stroke:none" d="m110 184 1 1-1-1z"/><path style="fill:#f08882;stroke:none" d="m216 184 1 1-1-1m79 0 1 1-1-1z"/><path style="fill:#eab8b6;stroke:none" d="m401 184 1 1-1-1m-290 1 1 1-1-1z"/><path style="fill:#f08882;stroke:none" d="m217 185 1 1-1-1z"/><path style="fill:#cfd9dd;stroke:none" d="m218 185 1 1-1-1m75 0 1 1-1-1z"/><path style="fill:#f08882;stroke:none" d="m294 185 1 1-1-1z"/><path style="fill:#eab8b6;stroke:none" d="m400 185 1 1-1-1z"/><path style="fill:#cfd9dd;stroke:none" d="m112 186 1 1-1-1z"/><path style="fill:#f08882;stroke:none" d="m113 186 1 1-1-1z"/><path style="fill:#eab8b6;stroke:none" d="m219 186 1 1-1-1m73 0 1 1-1-1z"/><path style="fill:#f08882;stroke:none" d="m398 186 1 1-1-1m-284 1 1 1-1-1z"/><path style="fill:#eab8b6;stroke:none" d="m220 187 1 1-1-1m71 0 1 1-1-1z"/><path style="fill:#f08882;stroke:none" d="m397 187 1 1-1-1z"/><path style="fill:#eab8b6;stroke:none" d="m115 188 1 1-1-1z"/><path style="fill:#f08882;stroke:none" d="m221 188 1 1-1-1m69 0 1 1-1-1z"/><path style="fill:#eab8b6;stroke:none" d="m396 188 1 1-1-1z"/><path style="fill:#cfd9dd;stroke:none" d="m116 189 1 1-1-1m107 0 1 1-1-1m65 0 1 1-1-1z"/><path style="fill:#f08882;stroke:none" d="m394 189 1 1-1-1m-276 1 1 1-1-1z"/><path style="fill:#eab8b6;stroke:none" d="m224 190 1 1-1-1m63 0 1 1-1-1z"/><path style="fill:#f08882;stroke:none" d="m393 190 1 1-1-1z"/><path style="fill:#eab8b6;stroke:none" d="m119 191 1 1-1-1z"/><path style="fill:#f08882;stroke:none" d="m225 191 1 1-1-1m61 0 1 1-1-1z"/><path style="fill:#eab8b6;stroke:none" d="m392 191 1 1-1-1z"/><path style="fill:#cfd9dd;stroke:none" d="m120 192 1 1-1-1z"/><path style="fill:#f08882;stroke:none" d="m226 192 1 1-1-1m59 0 1 1-1-1z"/><path style="fill:#eab8b6;stroke:none" d="m391 192 1 1-1-1z"/><path style="fill:#f08882;stroke:none" d="m122 193 1 1-1-1z"/><path style="fill:#cfd9dd;stroke:none" d="m228 193 1 1-1-1m55 0 1 1-1-1z"/><path style="fill:#f08882;stroke:none" d="m389 193 1 1-1-1z"/><path style="fill:#eab8b6;stroke:none" d="m123 194 1 1-1-1m106 0 1 1-1-1m53 0 1 1-1-1m106 0 1 1-1-1m-264 1 1 1-1-1z"/><path style="fill:#f08882;stroke:none" d="m230 195 1 1-1-1m51 0 1 1-1-1z"/><path style="fill:#eab8b6;stroke:none" d="m387 195 1 1-1-1z"/><path style="fill:#cfd9dd;stroke:none" d="m125 196 1 1-1-1z"/><path style="fill:#f08882;stroke:none" d="m126 196 1 1-1-1m105 0 1 1-1-1m49 0 1 1-1-1m105 0 1 1-1-1m-258 1 1 1-1-1z"/><path style="fill:#cfd9dd;stroke:none" d="m233 197 1 1-1-1m45 0 1 1-1-1z"/><path style="fill:#f08882;stroke:none" d="m384 197 1 1-1-1z"/><path style="fill:#eab8b6;stroke:none" d="m128 198 1 1-1-1m106 0 1 1-1-1m43 0 1 1-1-1m106 0 1 1-1-1z"/><path style="fill:#cfd9dd;stroke:none" d="m129 199 1 1-1-1z"/><path style="fill:#f08882;stroke:none" d="m235 199 1 1-1-1m41 0 1 1-1-1m105 0 1 1-1-1m-250 1 1 1-1-1m105 0 1 1-1-1z"/><path style="fill:#cfd9dd;stroke:none" d="m237 200 1 1-1-1m37 0 1 1-1-1z"/><path style="fill:#f08882;stroke:none" d="m275 200 1 1-1-1m105 0 1 1-1-1z"/><path style="fill:#eab8b6;stroke:none" d="m132 201 1 1-1-1m106 0 1 1-1-1m35 0 1 1-1-1m106 0 1 1-1-1z"/><path style="fill:#cfd9dd;stroke:none" d="m133 202 1 1-1-1z"/><path style="fill:#eab8b6;stroke:none" d="m239 202 1 1-1-1m33 0 1 1-1-1m106 0 1 1-1-1z"/><path style="fill:#f08882;stroke:none" d="m135 203 1 1-1-1m105 0 1 1-1-1m31 0 1 1-1-1m105 0 1 1-1-1z"/><path style="fill:#eab8b6;stroke:none" d="m136 204 1 1-1-1z"/><path style="fill:#f08882;stroke:none" d="m241 204 1 1-1-1z"/><path style="fill:#cfd9dd;stroke:none" d="m242 204 1 1-1-1m27 0 1 1-1-1z"/><path style="fill:#f08882;stroke:none" d="m270 204 1 1-1-1z"/><path style="fill:#eab8b6;stroke:none" d="m375 204 1 1-1-1m-238 1 1 1-1-1m106 0 1 1-1-1m25 0 1 1-1-1m106 0 1 1-1-1z"/><path style="fill:#cfd9dd;stroke:none" d="m138 206 1 1-1-1z"/><path style="fill:#f08882;stroke:none" d="m139 206 1 1-1-1z"/><path style="fill:#eab8b6;stroke:none" d="m244 206 1 1-1-1m23 0 1 1-1-1z"/><path style="fill:#f08882;stroke:none" d="m372 206 1 1-1-1m-232 1 1 1-1-1m105 0 1 1-1-1m21 0 1 1-1-1m105 0 1 1-1-1z"/><path style="fill:#eab8b6;stroke:none" d="m141 208 1 1-1-1z"/><path style="fill:#cfd9dd;stroke:none" d="m247 208 1 1-1-1m17 0 1 1-1-1z"/><path style="fill:#eab8b6;stroke:none" d="m370 208 1 1-1-1z"/><path style="fill:#cfd9dd;stroke:none" d="m142 209 1 1-1-1z"/><path style="fill:#eab8b6;stroke:none" d="m248 209 1 1-1-1m15 0 1 1-1-1z"/><path style="fill:#f08882;stroke:none" d="m368 209 1 1-1-1m-224 1 1 1-1-1m105 0 1 1-1-1m13 0 1 1-1-1m105 0 1 1-1-1z"/><path style="fill:#eab8b6;stroke:none" d="m145 211 1 1-1-1z"/><path style="fill:#f08882;stroke:none" d="m250 211 1 1-1-1m11 0 1 1-1-1z"/><path style="fill:#eab8b6;stroke:none" d="m366 211 1 1-1-1z"/><path style="fill:#cfd9dd;stroke:none" d="m146 212 1 1-1-1m106 0 1 1-1-1m7 0 1 1-1-1z"/><path style="fill:#eab8b6;stroke:none" d="m365 212 1 1-1-1z"/><path style="fill:#f08882;stroke:none" d="m148 213 1 1-1-1z"/><path style="fill:#eab8b6;stroke:none" d="m253 213 1 1-1-1m5 0 1 1-1-1z"/><path style="fill:#f08882;stroke:none" d="m363 213 1 1-1-1z"/><path style="fill:#eab8b6;stroke:none" d="m149 214 1 1-1-1z"/><path style="fill:#f08882;stroke:none" d="m254 214 1 1-1-1m3 0 1 1-1-1z"/><path style="fill:#eab8b6;stroke:none" d="m362 214 1 1-1-1m-212 1 1 1-1-1z"/><path style="fill:#f08882;stroke:none" d="m255.667 215.333.666.334-.666-.334z"/><path style="fill:#eab8b6;stroke:none" d="m361 215 1 1-1-1z"/><path style="fill:#cfd9dd;stroke:none" d="m151 216 1 1-1-1z"/><path style="fill:#f08882;stroke:none" d="m152 216 1 1-1-1m207 0 1 1-1-1m-206 1 1 1-1-1m205 0 1 1-1-1z"/><path style="fill:#eab8b6;stroke:none" d="m154 218 1 1-1-1m203 0 1 1-1-1z"/><path style="fill:#cfd9dd;stroke:none" d="m155 219 1 1-1-1z"/><path style="fill:#f08882;stroke:none" d="m156 219 1 1-1-1m199 0 1 1-1-1m-198 1 1 1-1-1m197 0 1 1-1-1z"/><path style="fill:#eab8b6;stroke:none" d="m158 221 1 1-1-1m195 0 1 1-1-1z"/><path style="fill:#cfd9dd;stroke:none" d="m159 222 1 1-1-1z"/><path style="fill:#eab8b6;stroke:none" d="m352 222 1 1-1-1z"/><path style="fill:#f08882;stroke:none" d="m161 223 1 1-1-1m189 0 1 1-1-1z"/><path style="fill:#eab8b6;stroke:none" d="m162 224 1 1-1-1m187 0 1 1-1-1m-186 1 1 1-1-1m185 0 1 1-1-1z"/><path style="fill:#cfd9dd;stroke:none" d="m164 226 1 1-1-1z"/><path style="fill:#f08882;stroke:none" d="m165 226 1 1-1-1m181 0 1 1-1-1m-180 1 1 1-1-1m179 0 1 1-1-1z"/><path style="fill:#eab8b6;stroke:none" d="m167 228 1 1-1-1m177 0 1 1-1-1z"/><path style="fill:#cfd9dd;stroke:none" d="m168 229 1 1-1-1z"/><path style="fill:#f08882;stroke:none" d="m169 229 1 1-1-1m173 0 1 1-1-1m-172 1 1 1-1-1m171 0 1 1-1-1z"/><path style="fill:#eab8b6;stroke:none" d="m171 231 1 1-1-1m169 0 1 1-1-1z"/><path style="fill:#cfd9dd;stroke:none" d="m172 232 1 1-1-1z"/><path style="fill:#eab8b6;stroke:none" d="m339 232 1 1-1-1z"/><path style="fill:#f08882;stroke:none" d="m174 233 1 1-1-1m163 0 1 1-1-1z"/><path style="fill:#eab8b6;stroke:none" d="m175 234 1 1-1-1m161 0 1 1-1-1m-160 1 1 1-1-1m159 0 1 1-1-1z"/><path style="fill:#cfd9dd;stroke:none" d="m177 236 1 1-1-1z"/><path style="fill:#f08882;stroke:none" d="m178 236 1 1-1-1m155 0 1 1-1-1m-154 1 1 1-1-1m153 0 1 1-1-1z"/><path style="fill:#eab8b6;stroke:none" d="m180 238 1 1-1-1m151 0 1 1-1-1z"/><path style="fill:#cfd9dd;stroke:none" d="m181 239 1 1-1-1z"/><path style="fill:#f08882;stroke:none" d="m182 239 1 1-1-1m147 0 1 1-1-1m-146 1 1 1-1-1m145 0 1 1-1-1z"/><path style="fill:#eab8b6;stroke:none" d="m184 241 1 1-1-1m143 0 1 1-1-1z"/><path style="fill:#cfd9dd;stroke:none" d="m185 242 1 1-1-1z"/><path style="fill:#eab8b6;stroke:none" d="m326 242 1 1-1-1z"/><path style="fill:#f08882;stroke:none" d="m187 243 1 1-1-1m137 0 1 1-1-1z"/><path style="fill:#eab8b6;stroke:none" d="m188 244 1 1-1-1m135 0 1 1-1-1m-134 1 1 1-1-1m133 0 1 1-1-1z"/><path style="fill:#cfd9dd;stroke:none" d="m190 246 1 1-1-1z"/><path style="fill:#f08882;stroke:none" d="m191 246 1 1-1-1m129 0 1 1-1-1m-128 1 1 1-1-1m127 0 1 1-1-1z"/><path style="fill:#eab8b6;stroke:none" d="m193 248 1 1-1-1m125 0 1 1-1-1z"/><path style="fill:#cfd9dd;stroke:none" d="m194 249 1 1-1-1z"/><path style="fill:#f08882;stroke:none" d="m195 249 1 1-1-1m121 0 1 1-1-1m-120 1 1 1-1-1m119 0 1 1-1-1z"/><path style="fill:#eab8b6;stroke:none" d="m197 251 1 1-1-1m117 0 1 1-1-1z"/><path style="fill:#cfd9dd;stroke:none" d="m198 252 1 1-1-1z"/><path style="fill:#eab8b6;stroke:none" d="m313 252 1 1-1-1z"/><path style="fill:#f08882;stroke:none" d="m200 253 1 1-1-1m111 0 1 1-1-1z"/><path style="fill:#eab8b6;stroke:none" d="m201 254 1 1-1-1m109 0 1 1-1-1m-108 1 1 1-1-1m107 0 1 1-1-1z"/><path style="fill:#f08882;stroke:none" d="m204 256 1 1-1-1m103 0 1 1-1-1m-102 1 1 1-1-1m101 0 1 1-1-1z"/><path style="fill:#eab8b6;stroke:none" d="m206 258 1 1-1-1m99 0 1 1-1-1z"/><path style="fill:#cfd9dd;stroke:none" d="m207 259 1 1-1-1z"/><path style="fill:#f08882;stroke:none" d="m208 259 1 1-1-1m95 0 1 1-1-1m-94 1 1 1-1-1m93 0 1 1-1-1z"/><path style="fill:#eab8b6;stroke:none" d="m210 261 1 1-1-1m91 0 1 1-1-1z"/><path style="fill:#cfd9dd;stroke:none" d="m211 262 1 1-1-1z"/><path style="fill:#eab8b6;stroke:none" d="m300 262 1 1-1-1z"/><path style="fill:#f08882;stroke:none" d="m213 263 1 1-1-1m85 0 1 1-1-1z"/><path style="fill:#eab8b6;stroke:none" d="m214 264 1 1-1-1m83 0 1 1-1-1m-82 1 1 1-1-1m81 0 1 1-1-1z"/><path style="fill:#f08882;stroke:none" d="m217 266 1 1-1-1m77 0 1 1-1-1m-76 1 1 1-1-1m75 0 1 1-1-1z"/><path style="fill:#eab8b6;stroke:none" d="m219 268 1 1-1-1m73 0 1 1-1-1z"/><path style="fill:#cfd9dd;stroke:none" d="m220 269 1 1-1-1z"/><path style="fill:#f08882;stroke:none" d="m221 269 1 1-1-1m69 0 1 1-1-1m-68 1 1 1-1-1m67 0 1 1-1-1z"/><path style="fill:#eab8b6;stroke:none" d="m223 271 1 1-1-1m65 0 1 1-1-1z"/><path style="fill:#cfd9dd;stroke:none" d="m224 272 1 1-1-1z"/><path style="fill:#eab8b6;stroke:none" d="m287 272 1 1-1-1z"/><path style="fill:#f08882;stroke:none" d="m226 273 1 1-1-1m59 0 1 1-1-1z"/><path style="fill:#eab8b6;stroke:none" d="m227 274 1 1-1-1m57 0 1 1-1-1m-56 1 1 1-1-1m55 0 1 1-1-1z"/><path style="fill:#f08882;stroke:none" d="m230 276 1 1-1-1m51 0 1 1-1-1m-50 1 1 1-1-1m49 0 1 1-1-1z"/><path style="fill:#eab8b6;stroke:none" d="m232 278 1 1-1-1m47 0 1 1-1-1z"/><path style="fill:#cfd9dd;stroke:none" d="m233 279 1 1-1-1z"/><path style="fill:#f08882;stroke:none" d="m234 279 1 1-1-1m43 0 1 1-1-1m-42 1 1 1-1-1m41 0 1 1-1-1z"/><path style="fill:#eab8b6;stroke:none" d="m236 281 1 1-1-1m39 0 1 1-1-1z"/><path style="fill:#cfd9dd;stroke:none" d="m237 282 1 1-1-1z"/><path style="fill:#eab8b6;stroke:none" d="m274 282 1 1-1-1z"/><path style="fill:#f08882;stroke:none" d="m239 283 1 1-1-1m33 0 1 1-1-1z"/><path style="fill:#eab8b6;stroke:none" d="m240 284 1 1-1-1z"/><path style="fill:#f08882;stroke:none" d="m271 284 1 1-1-1z"/><path style="fill:#eab8b6;stroke:none" d="m241 285 1 1-1-1m29 0 1 1-1-1z"/><path style="fill:#f08882;stroke:none" d="m243 286 1 1-1-1m25 0 1 1-1-1m-24 1 1 1-1-1m23 0 1 1-1-1z"/><path style="fill:#eab8b6;stroke:none" d="m245 288 1 1-1-1m21 0 1 1-1-1z"/><path style="fill:#cfd9dd;stroke:none" d="m246 289 1 1-1-1z"/><path style="fill:#f08882;stroke:none" d="m247 289 1 1-1-1m17 0 1 1-1-1m-16 1 1 1-1-1m15 0 1 1-1-1z"/><path style="fill:#eab8b6;stroke:none" d="m249 291 1 1-1-1m13 0 1 1-1-1z"/><path style="fill:#cfd9dd;stroke:none" d="m250 292 1 1-1-1z"/><path style="fill:#eab8b6;stroke:none" d="m261 292 1 1-1-1z"/><path style="fill:#f08882;stroke:none" d="m252 293 1 1-1-1m7 0 1 1-1-1z"/><path style="fill:#eab8b6;stroke:none" d="m253 294 1 1-1-1z"/><path style="fill:#f08882;stroke:none" d="m258 294 1 1-1-1z"/><path style="fill:#eab8b6;stroke:none" d="m254 295 1 1-1-1m3 0 1 1-1-1z"/></svg>