<svg width="1023" height="1023" viewBox="-1 -1 31 31" xmlns="http://www.w3.org/2000/svg" shape-rendering="crispEdges"><path fill="#FFF" d="M-1-1h31v31H-1z"/><path fill-rule="evenodd" d="M9 0h1v2h1V1h2V0h1v1h4V0h3v1h-2v1h-2v1h1v1h1V2h2v1h-1v2h-2v1h-1V5h-1V4h-1V2h-3v2h-1V3h-1v1H8V3h1V2H8V1h1zm4 3h1v1h-1zm-3 1h1v3h-1zm2 0h1v1h-1zm2 0h1v1h1v1h-1v2h-1V6h-1V5h1zM8 5h1v2H8zm12 0h1v3h-1zm-8 1h1v2h1v2h2V9h1V8h1v1h1V8h1v1h1V8h1v1h1V8h1v1h1v1h-2v1h-3v-1h-3v1h-1v1h-2v-1h-2v2h-1v-1h-1v1H9v-2H8V9H6V8h5v1h-1v2h1v-1h2V9h-1zm4 0h1v2h-1zm2 0h1v1h-1zM0 8h5v1H3v1H2V9H1v1H0zm25 0h1v1h-1zm2 0h1v1h-1zM5 9h1v1h1v1H6v1H4v2h1v4H3v-1H2v1H1v3H0v-4h1v-2H0v-1h3v-2H2v1H0v-2h1v-1h1v1h2v-1h1zm-3 6h1v1H2zm26-6h1v1h-1zm-5 2h1v1h-1zm2 0h1v1h1v1h-2zm2 0h1v1h-1zM6 12h2v4H7v-1H6v-1h1v-1H6zm11 0h2v1h4v1h1v1h1v1h-1v1h1v1h-1v1h1v1h-3v-1h1v-1h-1v-1h1v-1h-2v-1h1v-1h-4v1h-1v-1h-1v-1h1zm-7 1h1v2h-1zm2 0h2v1h2v1h-2v1h-1v1h-1v-2h1v-1h-1zm12 0h1v1h-1zm4 0h1v1h-1zm-3 1h2v1h-2zM9 15h1v1H9zm7 0h1v1h1v1h-1v1h-1v-1h-2v-1h2zm3 0h1v1h-1zm8 0h1v1h-1zM6 16h1v1H6zm14 0h1v2h1v1h-1v1h-3v-1h2v-1h-1v-1h1zm5 0h2v3h-1v-2h-1zM7 17h1v1h1v-1h1v1h3v1h-1v2h-1v2H8v-2h1v1h1v-1H9v-1h2v-1H8v1H7v-1H6v1H5v1H3v-1H2v-2h1v1h2v-1h2zm21 0h1v1h-1zm-13 1h1v1h-1zm2 0h1v1h-1zm-3 1h1v1h-1zm2 0h1v1h-1zm11 0h1v1h1v2h-2v1h-2v-2h1v-1h1zM6 20h1v1H6zm11 0h1v1h1v1h1v2h-1v-1h-1v-1h-1zm-5 1h3v1h2v1h-1v1h-1v-1h-1v1h-1v1h-1v-2h1v-1h-1zm16 2h1v1h-1zM8 24h1v2h4v1h-1v2H8zm1 3h1v1H9zm5-3h1v1h-1zm2 0h2v1h2v1h-2v1h-2v2h-1v-1h-1v-1h1v-1h1zm10 0h1v1h2v1h-1v2h-1v-1h-1v1h1v1h-4v-2h-1v-1h1v-1h1v1h1v-1h1zm-2 3h1v1h-1zm-6 0h1v1h-1zm2 0h1v1h-1zm-3 1h1v1h-1zm2 0h1v1h-1zm2 0h1v1h-1z"/><path d="M0 0h7v7H0V0zm1 1h5v5H1V1zm1 1h3v3H2V2zm20-2h7v7h-7V0zm1 1h5v5h-5V1zm1 1h3v3h-3V2zM0 22h7v7H0v-7zm1 1h5v5H1v-5zm1 1h3v3H2v-3zm18-4h5v5h-5v-5zm1 1h3v3h-3v-3zm1 1h1v1h-1v-1z" fill-rule="evenodd"/></svg>