<svg width="1023" height="1023" viewBox="-1 -1 31 31" xmlns="http://www.w3.org/2000/svg" shape-rendering="crispEdges"><path fill="#FFF" d="M-1-1h31v31H-1z"/><path fill-rule="evenodd" d="M10 0h1v2H9v1H8V1h2zm3 0h3v2h-3zm4 0h3v1h-1v1h-1V1h-1zm3 1h1v1h-1zm-4 1h2v1h-2zm3 0h1v2h-1v1h2v3h-1v1h-2V8h-1V7h1V5h-2v1h-1V4h3V3h1zm0 4h1v1h-1zM9 3h1v1h1v4h-1V5H9v3H8V4h1zm5 0h1v1h-1zm-2 1h2v2h-1v2h1v1h-2zm2 2h1v2h-1zm2 0h1v1h-1zM0 8h2v1H1v1H0zm3 0h1v1h2v1h1v1H4v1H3v-1H2v-1h1zm3 0h2v1h2v1H9v1H8v-1H7V9H6zm16 0h3v1h-2v2h-1v1h1v1h-1v1h-1v1h-1v-1h-1v-2h2v-1h-2v-1h2V9h1zm4 0h2v1h-2zM16 9h1v1h1v1h-1v1h1v1h-1v1h-1v-1h-1v1h-1v-1h-1v-1h-1v-2h2v2h1v-1h1zm9 0h1v1h2v2h1v1h-2v-1h-1v-1h-1zm3 0h1v1h-1zM7 11h1v1h1v3h1v1h1v1h1v1h-2v-1H8v-2H6v-1h2v-1H6v1H5v-1H4v-1h3zm2 0h2v2h-1v-1H9zm9 0h1v1h-1zm5 0h2v1h-2zm2 1h1v1h-1zM1 13h3v1H2v1h1v1h1v-2h1v3H3v2h1v1H3v1H2v-3H1v-1h1v-1H1v1H0v-3h1zm22 0h1v1h-1zm-13 1h2v2h-1v-1h-1zm7 0h2v1h1v1h-2v4h-1v2h-1v-2h-2v-2h1v1h2v-1h-1v-1h-2v-1h-1v-1h3v1h1zm8 0h4v1h-1v2h-1v-2h-1v1h-1zM6 16h1v1H6zm14 0h2v1h1v-1h1v3h-1v-1h-1v2h-2v-2h1v-1h-1zm-7 1h1v1h-1zm12 0h1v1h-1zm3 0h1v3h-2v-2h1zM0 18h1v1H0zm6 0h2v1H6zm6 0h1v1h-1zm-7 1h1v1h2v1H4v-1h1zm3 0h2v1h2v1h-1v2h-1v-1H9v1H8v-2h1v-1H8zm-8 1h1v1H0zm13 0h1v1h1v1h-1v2h2v-1h1v1h1v1h2v2h3v1h1v-3h3v2h-2v2h-5v-1h-1v-2h-2v-1h-2v1h-1v-1h-1zm5 0h1v1h-1zm8 0h1v1h2v1h-1v1h-1v-1h-1zm-7 1h1v1h-1zm-2 1h1v1h-1zm1 1h1v1h-1zm7 0h2v1h-2zM9 24h1v1H9zm2 0h1v1h-1zm17 0h1v1h-1zM8 25h1v1H8zm14 0h1v1h-1zM9 26h1v1H9zm2 0h1v1h1v-1h1v1h2v2h-2v-1h-3zm17 0h1v1h-1zM8 27h1v1h1v1H8zm9 0h1v2h-1zm10 0h1v2h-1z"/><path d="M0 0h7v7H0V0zm1 1h5v5H1V1zm1 1h3v3H2V2zm20-2h7v7h-7V0zm1 1h5v5h-5V1zm1 1h3v3h-3V2zM0 22h7v7H0v-7zm1 1h5v5H1v-5zm1 1h3v3H2v-3zm18-4h5v5h-5v-5zm1 1h3v3h-3v-3zm1 1h1v1h-1v-1z" fill-rule="evenodd"/></svg>