<svg xmlns="http://www.w3.org/2000/svg" width="512" height="512"><path style="fill:#01090e;stroke:none" d="M0 0v201h1c0-27.718 2.163-55.433 4.83-83 2.62-27.062 4.574-52.975 22.635-75C52.535 13.647 83.686 9.204 119 5.83 146.6 3.193 174.249 1 202 1l-19-1H0z"/><path style="fill:#0268a9;stroke:none" d="M202 .424c-31.541 4.142-64.222 3.23-96 6.407-25.067 2.506-48.998 7.068-68 25.208C7.15 61.491 6.65 101.207 3.91 141c-5.319 77.244-3.455 153.771.05 231C5.724 410.819 7.687 451.72 38 479.91c30.514 28.377 77.861 27.413 117 29.129 90.025 3.948 182.512 7.332 272-6.173 37.29-5.628 66.891-35.659 75.112-71.866 6.679-29.418 6.613-61.992 7.927-92 2.668-60.921 3.218-122.143-.949-183-2.341-34.18-.428-73.613-18.543-104C469.084 15.996 433.083 9.516 395 5.83 353.094 1.775 311.136 0 269 0c-21.859 0-45.331-2.42-67 .424z"/><path style="fill:#01090e;stroke:none" d="M310 0v1c24.464 0 48.641 2.203 73 3.91 38.23 2.68 74.447 6.276 100.535 38.09 18.061 22.025 20.016 47.938 22.635 75 2.667 27.562 4.83 55.286 4.83 83h1V0H310z"/><path style="fill:#0101ea;stroke:none" d="m8 89 1 1-1-1m495 0 1 1-1-1z"/><path style="fill:#5696b7;stroke:none" d="M129 97v1h12l-12-1m-4.333 1.333.666.334-.666-.334z"/><path style="fill:#fdfefe;stroke:none" d="M126 98.518c-50.867 10.852-32.271 89.138 18 78.271 51.18-11.065 32.993-89.15-18-78.271z"/><path style="fill:#5696b7;stroke:none" d="m144.667 98.333.666.334-.666-.334m-23 1 .666.334-.666-.334M148 99l1 1-1-1m-29 1 1 1-1-1m32 0 1 1-1-1m-34 1 1 1-1-1m36 0 1 1-1-1m-38 1 1 1-1-1m40 0 1 1-1-1m-42 1 1 1-1-1m43 0 1 1-1-1m-44 1 1 1-1-1m46 0 1 1-1-1m-48 1 1 1-1-1m49 0 1 1-1-1m-50 1 1 1-1-1m-1 1 1 1-1-1m-1 1 1 1-1-1m56 0 1 1-1-1m-57 1 1 1-1-1m58 0 1 1-1-1m-59 1 1 1-1-1m-1 1 1 1-1-1m-1 1 1 1-1-1m64 1 1 1-1-1m1 1 1 1-1-1m-67 1 1 1-1-1m68 1 1 1-1-1m-70 2 1 1-1-1m72 1 1 1-1-1m-73 1 1 1-1-1m74.333 1.667.334.666-.334-.666M97 123l1 1-1-1m76 1 1 1-1-1m-76.667 1.667.334.666-.334-.666m78 2 .334.666-.334-.666M95 129v3h1l-1-3z"/><path style="fill:#0101ea;stroke:none" d="m4 131 1 1-1-1z"/><path style="fill:#5696b7;stroke:none" d="M175 132v11h1l-1-11m-80 11v3h1l-1-3m79.333 3.667.334.666-.334-.666m-78 2 .334.666-.334-.666M173 150l1 1-1-1m-75.667 1.667.334.666-.334-.666M172 153l1 1-1-1m-74 1 1 1-1-1m73 1 1 1-1-1m-72 1 1 1-1-1m71 1 1 1-1-1m-70 1 1 1-1-1m1 1 1 1-1-1m68 0 1 1-1-1m-1 1 1 1-1-1m-66 1 1 1-1-1m1 1 1 1-1-1m63 1 1 1-1-1m-1 1 1 1-1-1m-1 1 1 1-1-1m-1 1 1 1-1-1m-1 1 1 1-1-1m-1 1 1 1-1-1m-51 1 1 1-1-1m1 1 1 1-1-1m47 0 1 1-1-1m-45 1 1 1-1-1m44 0 1 1-1-1m-43 1 1 1-1-1m41 0 1 1-1-1m-39 1 1 1-1-1m37 0 1 1-1-1m-35 1 1 1-1-1m33 0 1 1-1-1m-30 1 1 1-1-1m28 0 1 1-1-1m-25.333 1.333.666.334-.666-.334m22 0 .666.334-.666-.334M127 177v1h3l-3-1m13 0v1h3l-3-1m195 23v1h5l-5-1z"/><path style="fill:#fdfefe;stroke:none" d="M273 236h-1v-31h-62v209l67 1v-81c0-17.477-1.113-36.513 5.605-53 8.407-20.631 37.32-37.511 55.182-16.985 7.322 8.413 9.093 20.325 10.368 30.985 3.088 25.805.845 53.004.845 79v29c0 2.98-1.073 8.853 1.603 10.972C354.294 416.895 364.487 415 369 415h48V300c0-21.927 2.596-45.022-8.312-65-20.035-36.691-66.055-42.111-101.688-26.85-13.128 5.623-27.452 14.705-34 27.85z"/><path style="fill:#5696b7;stroke:none" d="M356 200v1h4l-4-1m-28 1v1h3l-3-1m35.667.333.666.334-.666-.334M323 202v1h3l-3-1m44.667.333.666.334-.666-.334M319 203v1h3l-3-1m51.667.333.666.334-.666-.334M101 204v211h1V205h67l-21-1h-47m109 0v1h62l-20-1h-42m106 0 1 1-1-1m57.667.333.666.334-.666-.334z"/><path style="fill:#fdfefe;stroke:none" d="M102 205v210h67V205h-67z"/><path style="fill:#5696b7;stroke:none" d="M272 205v31h1c.907-8.252 2.207-23.358-1-31m41 0 1 1-1-1m63 0 1 1-1-1m-66 1 1 1-1-1m68 0 1 1-1-1m-70 1 1 1-1-1m72 0 1 1-1-1m-74.333 1.333.666.334-.666-.334M382 208l1 1-1-1m-79 1 1 1-1-1m81 0 1 1-1-1m-83 1 1 1-1-1m84 0 1 1-1-1m-86 1 1 1-1-1m88 0 1 1-1-1m1 1 1 1-1-1m-92 1 1 1-1-1m-2 1 1 1-1-1m97 0 1 1-1-1m-98 1 1 1-1-1m99 0 1 1-1-1m-101 1 1 1-1-1m102 0 1 1-1-1m-103 1 1 1-1-1m-3 2 1 1-1-1m-1 1 1 1-1-1m-1 1 1 1-1-1m115 2 1 1-1-1m1 1 1 1-1-1m1 1 1 1-1-1m2 3 1 1-1-1m1 1 1 1-1-1m-129 1 1 1-1-1m-1 1 1 1-1-1m131 0 1 1-1-1m1 1 1 1-1-1m1 2 1 1-1-1m-199 1 1 1-1-1m200 1 1 1-1-1m1 2 1 1-1-1m-201 1 1 1-1-1m202 1 1 1-1-1m1.333 2.667.334.666-.334-.666M413 245l1 1-1-1m1.333 3.667.334.666-.334-.666m1 4 .334.666-.334-.666M310 255v1h3l-3-1m13.667.333.666.334-.666-.334M307 256l1 1-1-1m20.667.333.666.334-.666-.334M304 257l1 1-1-1m26 0 1 1-1-1m86 0v3h1l-1-3m-114 1 1 1-1-1m31 1 1 1-1-1m-35 1 1 1-1-1m36 0 1 1-1-1m-39 2 1 1-1-1m-1 1 1 1-1-1m-1 1 1 1-1-1m45 0 1 1-1-1m-46 1 1 1-1-1m47 0 1 1-1-1m-48 1 1 1-1-1m-1 1 1 1-1-1m50 0 1 1-1-1m-51 1 1 1-1-1m52 1 1 1-1-1m-54 2 1 1-1-1m55 0 1 1-1-1m1 2 1 1-1-1m-58 1 1 1-1-1m-1 2 1 1-1-1m60 0 1 1-1-1m-61 2 1 1-1-1m62.333 1.667.334.666-.334-.666M282 281l1 1-1-1m-.667 2.667.334.666-.334-.666M346 283v3h1l-1-3m-65.667 3.667.334.666-.334-.666M347 289v3h1l-1-3m-67.667 1.667.334.666-.334-.666M278 296v3h1l-1-3m70 1v6h1l-1-6m-71 11v107h1v-74l-1-33z"/><path style="fill:#01090e;stroke:none" d="M0 311v201h202v-1c-24.045 0-48.089-1.516-72-3.83-17.892-1.732-36.593-1.63-54-6.597-30.85-8.804-55.77-33.724-64.573-64.573-7.896-27.67-7.381-59.435-9.337-88-.742-10.829 2.068-27.092-2.09-37m511 0c0 27.714-2.163 55.438-4.83 83-2.619 27.062-4.574 52.975-22.635 75-26.088 31.814-62.305 35.41-100.535 38.09-24.359 1.707-48.536 3.91-73 3.91v1h202V330l-1-19z"/><path style="fill:#5696b7;stroke:none" d="M210 414v1h19l-19-1m139 0 1 1-1-1z"/><path style="fill:#0101ea;stroke:none" d="m8 422 1 1-1-1m495 0 1 1-1-1M42 483l1 1-1-1z"/></svg>